<?xml version="1.0" encoding="UTF-8"?>
<svg width="40px" height="40px" viewBox="0 0 40 40" version="1.1" xmlns="http://www.w3.org/2000/svg" xmlns:xlink="http://www.w3.org/1999/xlink">
    <title>椭圆形</title>
    <defs>
        <linearGradient x1="50%" y1="0%" x2="50%" y2="100%" id="linearGradient-1">
            <stop stop-color="#6DC5FF" offset="0%"></stop>
            <stop stop-color="#3A93FF" offset="100%"></stop>
        </linearGradient>
    </defs>
    <g id="页面-1" stroke="none" stroke-width="1" fill="none" fill-rule="evenodd">
        <g id="物流看板" transform="translate(-1554.000000, -500.000000)">
            <g id="编组-19" transform="translate(1554.000000, 494.000000)">
                <g id="车" transform="translate(0.000000, 6.000000)">
                    <circle id="椭圆形" fill="url(#linearGradient-1)" cx="20" cy="20" r="20"></circle>
                    <g id="编组" transform="translate(8.000000, 10.000000)" fill="#FFFFFF" fill-rule="nonzero">
                        <path d="M0,9.93293886 L0,16.6732413 C0,16.9625247 0.236686391,17.199211 0.525969757,17.199211 L0.607495069,17.199211 C0.870479947,17.199211 1.0887574,17.0046022 1.12820513,16.7468771 C1.34648258,15.2925707 2.6035503,14.1748849 4.1183432,14.1748849 C5.63313609,14.1748849 6.89020381,15.2899408 7.10848126,16.7468771 C7.14792899,17.0072321 7.36620644,17.199211 7.62919132,17.199211 L8.69690993,17.199211 C8.98619329,17.199211 9.22287968,16.9625247 9.22287968,16.6732413 L9.22287968,4.99671269 C9.22287968,4.70742932 8.98619329,4.47074293 8.69690993,4.47074293 L5.90927022,4.47074293 C5.03879027,4.47074293 4.20512821,4.83103222 3.60815253,5.46745562 L0.428665352,8.85470085 C0.152531229,9.14661407 0,9.53320184 0,9.93293886 Z M7.38198554,6.86390533 L7.38198554,10.6508876 C7.38198554,10.9401709 7.14529915,11.1768573 6.85601578,11.1768573 L2.36686391,11.1768573 C2.07758054,11.1768573 1.84089415,10.9401709 1.84089415,10.6508876 L1.84089415,10.2932281 C1.84089415,10.017094 1.9513478,9.74884944 2.14595661,9.55424063 L4.40499671,7.27416174 C4.99671269,6.67455621 5.80407627,6.33793557 6.64825773,6.33793557 L6.85601578,6.33793557 C7.14529915,6.33793557 7.38198554,6.57199211 7.38198554,6.86390533 L7.38198554,6.86390533 Z M10.834977,1.05193951 L10.834977,16.1472715 C10.834977,16.7284681 11.3057199,17.199211 11.8869165,17.199211 L16.4917817,17.199211 C16.7547666,17.199211 16.973044,17.0046022 17.0124918,16.7468771 C17.2307692,15.2925707 18.4878369,14.1748849 20.0026298,14.1748849 C21.6725838,14.1748849 23.026956,15.5292571 23.026956,17.199211 C23.5634451,17.199211 24,16.7626561 24,16.226167 L24,1.05193951 C24,0.470742932 23.5292571,0 22.9480605,0 L11.8869165,0 C11.3057199,0 10.834977,0.470742932 10.834977,1.05193951 Z" id="形状"></path>
                        <path d="M4.16042078,15.2531229 C2.96646943,15.2320842 1.99605523,16.2024984 2.01709402,17.3964497 C2.03813281,18.522025 2.95595003,19.4398422 4.08152531,19.460881 C5.27547666,19.4819198 6.24589086,18.5115056 6.22485207,17.3175542 C6.20381328,16.191979 5.28599606,15.2741617 4.16042078,15.2531229 Z M20.0447074,15.2531229 C18.8507561,15.2320842 17.8803419,16.2024984 17.9013807,17.3964497 C17.9224195,18.522025 18.8402367,19.4398422 19.965812,19.460881 C21.1597633,19.4819198 22.1301775,18.5115056 22.1091387,17.3175542 C22.0880999,16.191979 21.1702827,15.2741617 20.0447074,15.2531229 Z" id="形状"></path>
                    </g>
                </g>
            </g>
        </g>
    </g>
</svg>